<?xml version="1.0" encoding="UTF-8"?>
<svg id="Layer_1" data-name="Layer 1" xmlns="http://www.w3.org/2000/svg" xmlns:xlink="http://www.w3.org/1999/xlink" viewBox="0 0 1125 2436">
  <defs>
    <style>
      .cls-1 {
        fill: #139b13;
      }

      .cls-2 {
        fill: none;
        stroke: #83ff9a;
        stroke-miterlimit: 10;
        stroke-width: 14px;
      }

      .cls-3 {
        filter: url(#drop-shadow-1);
      }

      .cls-4 {
        fill: url(#linear-gradient);
      }
    </style>
    <filter id="drop-shadow-1" x="255" y="705" width="754" height="749" filterUnits="userSpaceOnUse">
      <feOffset dx="40" dy="67"/>
      <feGaussianBlur result="blur" stdDeviation="30"/>
      <feFlood flood-color="#000" flood-opacity=".72"/>
      <feComposite in2="blur" operator="in"/>
      <feComposite in="SourceGraphic"/>
    </filter>
    <linearGradient id="linear-gradient" x1="591.95" y1="758.3" x2="550.66" y2="2037.93" gradientUnits="userSpaceOnUse">
      <stop offset="0" stop-color="#4fe08a"/>
      <stop offset="1" stop-color="#000" stop-opacity="0"/>
    </linearGradient>
  </defs>
  <rect x="150.34" y="589.47" width="856.63" height="856.63" rx="133.47" ry="133.47"/>
  <g class="cls-3">
    <path class="cls-1" d="M327.48,1285.1c-4.35,0-7.61-1.92-9.78-5.75-2.17-3.83-3.26-7.15-3.26-9.97,0-8.44,4.22-13.16,12.65-14.19,9.45-1.28,19.17-3.58,29.14-6.9,9.97-3.32,14.95-9.2,14.95-17.64l.38-243.85c0-15.85-3.33-26.71-9.97-32.59-6.65-5.88-14.44-9.45-23.39-10.74-8.95-1.28-16.87-2.81-23.77-4.6-2.56-1.28-4.73-2.94-6.52-4.98-1.79-2.04-2.68-5.49-2.68-10.35,0-3.07.77-6.58,2.3-10.54,1.53-3.96,3.83-6.07,6.9-6.33,25.56-1.53,48.69-2.55,69.4-3.07,20.7-.51,36.55-.77,47.54-.77,2.04,0,4.34,1.02,6.9,3.07,2.55,2.05,4.09,6.13,4.6,12.27v299.83c0,10.99,2.62,18.98,7.86,23.96,5.24,4.98,11.5,8.24,18.79,9.78,7.29,1.53,13.99,2.68,20.13,3.45,5.37.51,9.01,1.53,10.93,3.07,1.92,1.53,2.88,5.24,2.88,11.12,0,2.82-1.09,6.13-3.26,9.97-2.17,3.83-5.43,5.75-9.78,5.75h-162.95ZM406.08,835.36c-14.06,0-25.31-5.18-33.74-15.53s-12.65-22.94-12.65-37.77,4.22-27.73,12.65-37.96c8.44-10.22,19.68-15.34,33.74-15.34s25.31,5.12,33.74,15.34c8.44,10.23,12.65,22.88,12.65,37.96s-4.22,27.41-12.65,37.77-19.69,15.53-33.74,15.53Z"/>
    <path class="cls-1" d="M709.77,1296.6c-29.4,0-51.95-3.71-67.67-11.12-15.72-7.41-27.93-13.29-36.62-17.64-7.16-3.83-13.04-7.15-17.64-9.97-4.6-2.81-9.08-4.22-13.42-4.22-1.79,0-3.71.45-5.75,1.34-2.05.9-4.09,2.62-6.13,5.18-4.6,5.62-9.33,9.65-14.19,12.08-4.86,2.43-9.2,3.64-13.04,3.64-4.86,0-8.76-1.73-11.69-5.18-2.94-3.45-4.28-7.86-4.03-13.23.51-5.11.77-10.35.77-15.72v-16.1c0-25.31-1.41-48.69-4.22-70.17-2.82-21.47-4.22-38.21-4.22-50.23,0-6.64,1.98-11.56,5.94-14.76,3.96-3.19,8.24-4.79,12.84-4.79,10.99,0,17.76,5.37,20.32,16.1,1.53,6.39,4.15,15.53,7.86,27.41,3.7,11.89,10.67,28.82,20.9,50.8,9.2,19.43,20.9,35.21,35.08,47.35,14.19,12.14,29.07,21.03,44.67,26.65,15.59,5.62,30.16,8.44,43.71,8.44,15.59,0,30.67-2.43,45.24-7.29,14.57-4.85,26.65-13.93,36.23-27.22,9.59-13.29,14.38-32.46,14.38-57.51,0-18.91-5.82-35.85-17.45-50.8-11.63-14.95-26.71-28.56-45.24-40.83-18.54-12.27-38.02-23.51-58.47-33.74-17.64-8.94-35.08-18.6-52.34-28.95-17.25-10.35-32.97-22.11-47.16-35.27-14.19-13.16-25.63-28.37-34.32-45.63-8.69-17.25-13.29-37.25-13.8-60-.77-26.32,3.7-48.75,13.42-67.29,9.71-18.53,22.49-33.55,38.34-45.05,15.85-11.5,33.23-19.94,52.14-25.31,18.91-5.37,37.19-8.05,54.83-8.05,20.45,0,37.51,1.6,51.19,4.79,13.67,3.2,24.66,6.46,32.97,9.78,8.3,3.32,14.12,4.98,17.45,4.98,6.13,0,10.41-1.15,12.84-3.45,2.43-2.3,5.43-4.6,9.01-6.9,2.81-1.79,6.26-2.68,10.35-2.68,5.11,0,9.9,1.47,14.38,4.41,4.47,2.94,6.71,6.33,6.71,10.16,0,15.59.83,30.61,2.49,45.05,1.66,14.44,3.32,27.93,4.98,40.45,1.66,12.53,2.49,23.65,2.49,33.36,0,7.93-2.05,13.49-6.13,16.68-4.09,3.2-8.69,4.79-13.8,4.79-3.83,0-7.48-.89-10.93-2.68-3.45-1.79-5.43-3.83-5.94-6.13-2.81-16.61-7.03-31.44-12.65-44.48-5.62-13.04-12.34-24.41-20.13-34.12-7.8-9.71-16.43-17.83-25.88-24.35-9.46-6.52-19.49-11.37-30.1-14.57-10.61-3.19-21.54-4.79-32.78-4.79-17.64,0-33.36,2.94-47.16,8.82-13.8,5.88-24.6,15.53-32.4,28.95-7.8,13.42-11.69,31.63-11.69,54.64,0,16.36,5.94,31.51,17.83,45.43,11.89,13.93,27.09,27.03,45.63,39.3,18.53,12.27,37.63,24.15,57.32,35.66,16.61,9.72,33.8,20,51.57,30.86,17.76,10.87,34.31,23,49.65,36.42,15.34,13.42,27.8,28.56,37.38,45.43,9.59,16.87,14.38,36.04,14.38,57.51,0,33.23-7.54,61.29-22.62,84.16-15.09,22.88-35.34,40.2-60.77,51.95-25.44,11.75-53.74,17.64-84.92,17.64Z"/>
  </g>
  <line class="cls-2" x1="150.34" y1="1030.64" x2="1006.97" y2="1026.31"/>
  <path class="cls-4" d="M150.34,1030.64h856.63v276.74c0,76.56-62.16,138.72-138.72,138.72H285.7c-74.71,0-135.36-60.65-135.36-135.36v-280.1h0Z"/>
</svg>